<?xml version="1.0" encoding="utf-8" ?>
<svg xmlns="http://www.w3.org/2000/svg" xmlns:xlink="http://www.w3.org/1999/xlink" width="4096" height="1225">
	<path fill="#FE9598" d="M181.723 382.324C200.641 381.189 219.802 381.701 238.752 381.671C256.057 381.645 274.927 380.461 291.993 383.289C304.812 403.186 313.799 426.286 323.45 447.879L376.307 565.331C383.711 581.814 389.269 598.874 397.767 614.878C399.782 618.675 402.222 624.082 406.464 625.527C414.852 619.138 423.208 593.709 427.981 583.222C442.96 550.313 458.557 517.654 473.293 484.615C483.606 461.492 507.975 399.61 521.841 382.338C548.933 380.748 576.642 381.899 603.785 382.086C624.875 382.232 647.037 381.142 668.004 383.206L668.012 881.81C643.195 883.055 617.91 882.016 593.038 881.862C575.692 881.755 557.279 882.867 540.073 881.025C539.681 848.894 541.782 567.059 537.595 562.96C527.051 570.423 513.566 607.72 507.853 621.022C501.084 636.786 493.705 652.289 487.037 668.098C480.961 682.503 453.858 758.004 444.315 763.583C437.318 767.673 372.012 766.008 361.222 764.612C350.437 748.087 342.996 726.736 335.636 708.39C325.813 683.904 315.351 659.764 304.884 635.552C293.462 609.129 283.243 578.305 264.575 556.165C263.311 573.24 263.932 590.542 264.049 607.657L264.44 682.626C264.645 748.608 263.077 815.325 267.365 881.163C240.83 883.213 210.65 879.162 185.088 882.129C183.519 881.37 182.339 880.49 181.005 879.374C179.604 861.868 180.516 843.821 180.612 826.252L181.389 728.898C181.652 690.224 180.446 651.574 180.821 612.895L181.754 474.201C181.926 443.598 182.52 412.917 181.723 382.324Z"/>
	<path fill="#FE9598" d="M1299.89 538.153C1300.09 538.099 1300.3 538.051 1300.5 537.991C1310.26 535.063 1323.57 522.755 1332.94 517.332C1375.32 492.793 1426.67 485.326 1471.59 508.293C1489.81 517.61 1503.59 530.464 1515.13 547.264C1517.01 550 1520.12 553.619 1521.17 556.737C1521.32 557.167 1521.4 557.868 1521.47 558.278C1534.44 552.933 1544.1 541.288 1555.64 533.457C1589.58 510.425 1618.31 496.722 1659.5 495.456C1677.79 494.894 1696.4 497.547 1713.35 504.612C1738.25 514.987 1756.93 532.592 1767.23 557.75C1770.84 566.575 1781.16 592.817 1779.18 601.357C1779.14 601.516 1779.11 601.675 1779.08 601.834C1781.98 605.945 1781.92 612.847 1782.26 617.793C1784.71 652.947 1783.37 688.979 1783.44 724.24C1783.54 775.622 1784.28 827.095 1782.56 878.45C1780.96 881.184 1779.57 881.029 1776.72 881.866C1768.27 880.777 1758.48 881.677 1749.87 881.673L1690.33 881.788C1682.88 881.808 1673.83 882.863 1666.58 881.519C1666.19 881.448 1664.12 881.127 1663.82 880.856C1660.52 877.874 1661.54 857.96 1661.55 852.794C1662.07 803.344 1662.26 753.892 1662.14 704.441C1662.06 683.528 1663.18 650.614 1659.86 630.924C1658.74 624.317 1655.88 618.129 1651.99 612.684C1643.6 600.946 1630.62 594.322 1616.55 592.176C1588.56 587.908 1557.56 598.884 1535.23 615.325C1535.06 620.626 1533.5 625.944 1533.31 631.445C1532.84 644.945 1535.2 694.833 1531.97 703.307C1535.46 710.865 1536.31 861.703 1535.17 879.31C1533.62 881.252 1532.77 881.183 1530.43 881.845C1491.96 879.497 1452.95 883.412 1414.42 880.996C1414.58 880.642 1414.75 880.295 1414.89 879.934C1416.96 874.507 1415.07 665.184 1413.57 644.507C1412.83 634.272 1411.73 624.305 1407.32 614.879C1402.92 605.462 1393.06 599.669 1383.6 596.227C1354.38 585.605 1323.57 595.701 1296.73 608.174C1292.64 611.578 1290.32 613.419 1289.79 618.981C1287.69 641.048 1289.57 667.639 1289.66 690.064L1290.2 838.01C1290.19 846.898 1291.93 873.304 1289.19 880.708L1286.83 881.888C1267.15 882.967 1246.83 882.09 1227.1 882.077C1207.44 882.064 1187.26 882.996 1167.67 881.394C1168.02 836.171 1168 790.946 1167.62 745.724L1167.96 504.904C1190.32 503.491 1213.37 504.457 1235.81 504.401C1252.42 504.359 1270.6 502.824 1287.02 505.018L1289.57 507.182C1290.23 515.912 1288.5 535.074 1292.54 541.945C1295.15 542.766 1296.73 541.341 1299.09 540.187L1299.89 538.153Z"/>
	<path fill="#FE9598" d="M1974.11 542.123L1974.6 541.998C1991.17 537.626 2006.72 524.225 2021.65 515.904C2061.74 493.555 2118.99 484.938 2160.45 508.75C2170.95 514.785 2206.33 546.236 2209.28 556.227C2209.56 556.115 2209.84 556.006 2210.11 555.89C2220.8 551.408 2233.13 539.513 2243.41 532.898C2283.16 507.303 2313.85 492.254 2362.05 496.237C2374.62 497.276 2387.56 498.846 2399.41 503.407C2426.09 513.673 2445.38 535.858 2456.65 561.657C2463.07 576.338 2466.44 592.77 2467.85 608.678C2470.49 638.466 2469.01 669.156 2469.01 699.075C2469.02 749.114 2469.21 799.009 2468.52 849.055C2468.42 856.095 2470.04 874.167 2468.22 880.018C2468.07 880.505 2467.61 881.287 2467.39 881.681C2447.42 883.258 2426.71 882.179 2406.66 882.153C2386.68 882.126 2366.06 883.129 2346.16 881.537C2348.46 876.423 2348.59 666.775 2347.27 644.278C2346.82 636.73 2345.49 629.119 2342.78 622.038C2338.46 610.741 2330.65 601.849 2319.52 596.937C2298.76 587.778 2272.48 591.215 2251.87 599.412C2244.43 602.37 2237.07 606.362 2230.66 611.157C2227.98 613.167 2225.48 616.032 2222.6 617.669C2225.11 630.257 2222.17 646.666 2222.25 659.644L2222.88 829.972C2222.82 841.536 2224.44 871.116 2222.38 880.105C2216.28 883.201 2113.27 883.378 2104.66 880.567C2104.2 880.417 2103.75 880.234 2103.31 880.049C2101 869.025 2103.11 851.134 2103.2 839.315L2103.3 738.146C2103.29 722.083 2104.57 704.716 2103.09 688.773C2102.93 687.014 2102.29 685.433 2101.4 683.923C2101.48 683.76 2101.55 683.595 2101.63 683.434C2105.59 675.669 2101.26 647.451 2100.35 638.186C2099.68 631.441 2099.35 622.575 2093.72 617.963C2093.39 612.84 2089.26 609.008 2085.57 605.696C2073.54 594.913 2053.58 590.939 2037.92 591.962C2019.84 593.143 2000.24 599.179 1985.17 609.349C1981.4 611.894 1978.2 615.812 1974.35 618.039C1978.06 627.924 1975.25 791.29 1975.13 810.068C1974.99 831.368 1975.66 852.683 1975.34 873.979C1975.31 876.071 1975.34 877.951 1974.46 879.904C1974.02 880.871 1974.16 880.587 1973.72 881.328C1957.68 883.73 1939.57 882.091 1923.29 882.028C1900.37 881.938 1876.93 882.8 1854.09 881.367C1854.94 879.625 1855.23 878.237 1855.31 876.305C1857.09 834.664 1855.32 792.319 1855.38 750.601C1855.76 690.501 1855.83 630.399 1855.58 570.297C1855.54 558.309 1857.04 514.675 1854.04 506.011C1853.93 505.679 1853.79 505.355 1853.66 505.03C1882.04 503.691 1910.38 504.144 1938.79 504.55C1950.08 504.712 1963.5 503.628 1974.58 505.757C1978.25 511.12 1976.79 531.119 1975.78 537.613C1975.53 539.253 1974.88 540.666 1974.11 542.123Z"/>
	<path fill="#FE9598" d="M2841.68 529.836C2841.95 529.547 2842.22 529.266 2842.48 528.97C2846.91 523.892 2849.15 511.522 2852.3 505.065C2856.05 497.378 2860.66 489.953 2865.38 482.829C2908.81 417.239 2975.24 383.059 3052.64 374.521C3121.99 366.42 3192.28 375.233 3257.48 400.209C3267.29 404.052 3282.43 408.886 3290.61 415.522C3291.27 416.061 3291.37 416.314 3291.77 416.957C3292.45 418.508 3292.92 419.988 3293.01 421.683C3293.59 431.938 3293.92 527.383 3292.24 532.186C3291.68 533.795 3290.79 534.259 3289.28 534.887C3285.77 536.345 3281.26 534.621 3278.02 533.08C3265.94 527.332 3243.45 508.85 3230.18 500.391C3178.83 467.666 3116 454.406 3057.31 474.535C3023.26 486.212 2993.29 509.622 2977.44 542.26C2974.23 548.874 2968.74 569.43 2964.61 572.951L2964.59 573.779C2964.38 580.119 2962.26 586.38 2961.11 592.601C2959.28 602.547 2958.54 612.537 2958.48 622.643C2958.36 640.57 2958.45 659.128 2960.51 676.928C2961.22 683.061 2964.46 688.963 2964.6 695.061C2964.72 695.179 2964.84 695.292 2964.96 695.414C2971.23 701.92 2974.4 717.495 2979.62 725.859C3005.35 767.033 3044.96 791.278 3092.85 797.118C3109.29 800.145 3147.68 801.513 3163.7 798.179C3166.39 791.731 3164.73 713.425 3162.99 703.006C3161.01 701.326 3159.26 701.63 3156.76 701.452C3139.94 701.476 3080.88 703.779 3068.33 699.679C3064.72 693.176 3068.89 684.431 3065.47 677.726C3065.38 677.535 3065.26 677.353 3065.16 677.167C3065.24 676.989 3065.34 676.814 3065.41 676.632C3069.56 667.025 3061.44 610.696 3068.35 607.987C3073.37 606.014 3278.7 605.482 3293.67 607.256L3294.28 607.693L3294.4 610.04L3294.71 608.916C3294.89 649.191 3293.81 689.466 3294.13 729.765C3294.44 767.966 3296.2 806.629 3295.31 844.782C3295.27 846.57 3294.88 847.679 3293.84 849.164C3293.48 850.745 3293.55 851.302 3292.33 852.368C3286.38 857.549 3273.44 860.58 3265.82 863.237C3203.65 884.94 3134.09 895.373 3068.27 891.16C2985.06 885.833 2915.43 854.929 2867.53 785.175C2863.18 778.845 2858.71 772.167 2855.28 765.282C2851.09 756.87 2848.22 743.25 2842.07 736.563C2841.94 736.425 2841.8 736.297 2841.67 736.164C2843 732.045 2832.3 700.027 2830.58 693.06C2828.79 685.797 2827.86 678.773 2827.11 671.346C2824.06 641.14 2823.24 608.084 2828.71 578.142C2829.88 571.747 2831.16 565.276 2832.96 559.025C2835.28 550.931 2842.29 538.06 2841.68 529.836Z"/>
	<path fill="#FE9598" d="M756.213 512.354L756.738 512.221C830.959 493.592 977.17 481.571 1043.6 521.465C1065.39 534.549 1083.88 557.745 1090.36 582.582C1092.18 589.582 1091.73 596.992 1093.52 604C1093.58 604.229 1093.65 604.457 1093.71 604.685C1096.5 697.002 1094.69 789.34 1095.98 881.671C1057.32 882.755 1017.67 882.641 979.024 880.836C977.967 867.98 977.683 855.037 977.4 842.144C967.225 846.774 958.687 854.621 949.626 861.068C928.317 876.23 902.817 886.006 877.042 890.221C840.993 896.117 802.213 890.51 772.171 868.704C746.448 850.19 729.212 822.144 724.314 790.832C719.49 760.141 725.847 725.956 744.394 700.625C781.118 650.47 866.144 642.867 923.052 638.374C942.26 636.858 961.712 636.474 980.77 633.512L980.712 632.911C979.293 618.444 974.279 604.961 962.691 595.629C927.849 567.572 856.804 575.107 816.968 586.595C800.684 591.291 772.642 602.648 757.561 604.209L757.6 603.1L756.87 602.832C754.115 575.486 755.878 540.345 756.213 512.354ZM865.222 802.701C890.067 813.394 923.014 810.52 947.865 800.693C958.813 796.364 969.101 790.437 979.566 785.075C980.021 758.843 980.906 731.735 979.226 705.565C974.738 705.839 970.193 705.98 965.722 706.436C932.82 709.346 875.785 709.161 853.079 736.334C843.871 747.354 842.505 761.017 843.964 774.802C844.847 783.153 848.097 790.656 854.86 795.91C858.083 798.413 861.691 800.662 865.222 802.701Z"/>
	<path fill="#FE9598" d="M2545.02 512.72C2608.08 496.819 2706.68 488.576 2769.88 499.42C2780.11 501.175 2823.04 510.195 2828.63 518.13C2829.22 520.424 2829.01 522.21 2828.67 524.522C2826.34 540.172 2820.02 555.555 2816.86 571.179C2808.71 611.51 2810.66 655.937 2817.26 696.473C2818.47 703.959 2819.91 711.696 2821.91 719.013C2824.15 727.203 2832.92 746.107 2832.57 752.995C2839.31 759.456 2846.5 779.519 2852.6 788.775C2862.65 804.053 2879.63 817.315 2887.17 833.757C2891.67 843.546 2892.67 868.496 2888.91 878.509C2887.28 880.479 2885.18 880.946 2882.76 881.415C2868.39 884.203 2844.7 882.201 2829.45 882.122C2812.27 882.033 2794.23 883.063 2777.15 881.615C2774.52 881.392 2772.38 881.147 2770.14 879.641C2768.22 871.268 2770.65 861.557 2770.13 852.899C2769.95 849.976 2769.51 848.181 2767.32 846.194C2760.32 845.797 2737.84 865.291 2730.55 869.593C2708.56 882.574 2679.66 890.531 2654.2 891.793C2618.1 893.581 2580.78 885.378 2553.43 860.543C2529.42 838.734 2515.97 812.669 2514.52 780.066C2512.94 744.646 2522.01 718.285 2545.94 692.248C2579.74 655.472 2633.48 647.897 2680.51 642.298C2706.83 639.165 2732.73 637.031 2759.16 635.323C2762.7 635.095 2767.58 634.167 2769.8 631.15C2771.06 629.443 2771.27 627.348 2771.05 625.3C2769.75 613.313 2763.29 602.916 2753.91 595.545C2718.4 567.62 2647.91 575.408 2607.52 587.126C2590.93 591.942 2565.72 602.565 2549.66 604.452C2549.04 604.029 2548.31 603.745 2547.82 603.185C2544.85 599.772 2550.52 525.558 2545.27 513.269C2545.2 513.083 2545.1 512.903 2545.02 512.72ZM2657.32 802.566C2688.5 813.118 2722.62 810.692 2752 795.835C2759.51 792.084 2767.28 786.796 2769.96 778.408C2772.42 770.686 2773.6 712.36 2770.79 706.659C2770.64 706.348 2770.46 706.05 2770.29 705.746C2764.63 705.912 2758.97 706.065 2753.32 706.499C2720.2 709.291 2667.16 709.416 2643.71 737.665C2635.97 746.998 2634.16 759.863 2635.3 771.646C2636.29 781.843 2641.47 790.61 2649.43 797.046C2651.82 798.987 2655.22 800.447 2657.32 802.566Z"/>
	<path fill="#FE9598" d="M3519.4 371.433C3533.11 366.807 3545.77 359.166 3559.79 354.758C3613.36 337.917 3677.14 339.281 3730.64 355.178C3787.48 372.114 3837.66 406.304 3874.22 453.015C3881.32 461.957 3888.65 471.054 3894.04 481.159C3896.38 485.541 3900.25 494.934 3898.76 499.835C3901.43 508.301 3901.05 631.263 3897.51 637.848C3897.04 638.706 3896.41 639.289 3895.71 639.95C3892.93 640.431 3892.2 639.591 3889.98 638.038C3882.93 633.092 3876.59 626.858 3868.75 623.016C3846.79 612.239 3809.55 610.36 3785.55 614.329C3763.64 617.953 3744.46 626.633 3731.33 645.357C3718.93 663.023 3726.91 681.677 3718.72 697.92C3717.66 702.948 3703.84 710.976 3699.31 713.875C3699.18 713.96 3699.04 714.028 3698.9 714.105C3700.42 721.493 3694.74 748.501 3691.66 755.837C3695.8 764.614 3691.58 775.883 3698.11 783.747C3698.7 784.464 3699.29 785.165 3699.91 785.864C3709.99 790.835 3740.72 803.153 3746.61 810.778C3748.01 812.59 3747.76 813.078 3747.47 815.197C3741.44 821.736 3718.43 824.74 3708.94 828.791C3678.09 841.956 3665.82 866.609 3661.02 897.944C3659.98 904.741 3660.51 913.021 3657.95 919.348C3650.59 920.767 3642.16 919.746 3634.73 919.228C3635.4 917.893 3635.65 916.929 3635.74 915.437C3636.86 897.447 3637.97 875.466 3634.43 857.762C3625.9 814.994 3582.2 771.278 3556.49 736.66C3549.24 726.892 3543.03 716.255 3537.07 705.668C3533.8 699.857 3531.19 693.304 3526.79 688.253C3543.92 692.781 3556.87 706.184 3577.15 710.5C3584.84 712.135 3593.77 712.189 3600.56 707.732C3610.86 701.767 3618.79 661.751 3635.18 650.052C3640.58 646.2 3648.75 646.246 3654.67 642.996C3654.85 642.902 3655.01 642.8 3655.18 642.701C3659.95 634.256 3654.12 604.053 3656.53 591.485C3660.28 571.988 3674.13 555.642 3678.36 535.639C3684.67 505.808 3672.01 492.978 3655.33 471.647C3651.03 466.143 3647.36 459.978 3643.53 454.13C3623.57 423.659 3594.41 394.206 3559.59 381.405C3546.64 376.643 3532.88 374.242 3519.4 371.433Z"/>
	<path fill="#FE9598" d="M3357.51 653.164C3363.69 641.791 3350.8 603.314 3357.74 586.913C3360.97 588.983 3362.83 591.049 3364.69 594.419C3369.9 603.838 3372.82 614.362 3377.26 624.135C3388.24 648.328 3401.38 671.938 3417.03 693.414C3432.03 714.005 3451.21 735.355 3470.4 752.261C3481.78 762.281 3493.89 771.272 3505.16 781.516C3528.69 802.904 3560.47 833.492 3580.21 858.149C3587.2 866.894 3592.92 876.374 3599.35 885.513C3605.15 893.754 3614.37 904.715 3616.41 914.598C3616.83 916.661 3616.84 916.9 3615.81 918.713C3609.95 920.367 3601.8 918.026 3595.93 916.883C3562.33 910.332 3531.44 898.723 3501.62 881.972C3436.69 845.505 3387.65 778.603 3367.83 707.273C3365.07 697.364 3362.64 687.335 3361.19 677.143C3360.26 670.634 3361.05 658.208 3357.51 653.164Z"/>
	<path fill="#FE9598" d="M3644.32 476.499L3646.92 477.303C3653.55 489.667 3660.86 508.887 3661.14 522.966C3661.37 534.02 3655.18 543.265 3647.76 550.906C3640.41 558.467 3631.8 564.296 3622.4 568.983C3615.9 572.226 3533.64 601.173 3531.27 601.124C3529.66 601.091 3529.66 600.748 3528.59 599.573C3528.64 598.435 3528.82 597.402 3529.2 596.321C3535.78 577.876 3569.35 569.176 3585.29 561.51C3602.42 557.166 3635.69 537.76 3646.79 524.032C3650.29 519.702 3651.19 516.624 3650.63 511.109C3650.43 511.422 3650.24 511.74 3650.03 512.048C3639.95 527.003 3590.33 552.93 3571.86 556.321C3581.31 552.86 3594.23 541.258 3602.71 534.934C3619.02 522.76 3629.2 507.706 3638.47 489.838C3640.56 485.812 3643.66 480.991 3644.32 476.499Z"/>
	<path fill="#FEFDFD" fill-opacity="0.015686275" d="M3061.63 601.972C3077.77 598.215 3094.16 599.012 3110.62 598.788C3133.27 598.525 3155.93 598.429 3178.58 598.501C3212.26 598.489 3247.33 596.554 3280.86 599.458C3286.55 599.951 3294.47 600.851 3299.38 604.041C3301.21 605.233 3301.18 606.687 3301.4 608.652C3302.54 618.87 3301.24 630.581 3300.99 640.944L3298.51 718.87C3298.13 732.359 3299.34 745.666 3299.77 759.124C3300.36 778.112 3300.39 797.171 3300.64 816.172C3300.77 826.164 3302.86 839.148 3301.09 848.804C3298.56 849.721 3296.44 849.43 3293.84 849.164C3294.88 847.679 3295.27 846.57 3295.31 844.782C3296.2 806.629 3294.44 767.966 3294.13 729.765C3293.81 689.466 3294.89 649.191 3294.71 608.916L3294.4 610.04L3294.28 607.693L3293.67 607.256C3278.7 605.482 3073.37 606.014 3068.35 607.987C3061.44 610.696 3069.56 667.025 3065.41 676.632C3065.34 676.814 3065.24 676.989 3065.16 677.167C3065.93 670.525 3063.03 659.879 3062.74 652.518C3062.22 639.072 3064.55 613.607 3061.63 601.972Z"/>
	<path fill="#FEFDFD" fill-opacity="0.011764706" d="M185.088 882.129C183.595 882.306 182.02 882.535 180.512 882.498C178.23 882.441 176.718 882.278 175.101 880.68C172.815 863.385 174.513 844.164 174.517 826.641L174.699 710.626C174.393 637.57 174.462 564.513 174.906 491.458L174.887 428.285C174.852 413.692 174.033 398.451 176.161 384.007C177.96 382.277 179.287 382.579 181.723 382.324C182.52 412.917 181.926 443.598 181.754 474.201L180.821 612.895C180.446 651.574 181.652 690.224 181.389 728.898L180.612 826.252C180.516 843.821 179.604 861.868 181.005 879.374C182.339 880.49 183.519 881.37 185.088 882.129Z"/>
	<path fill="#FEFDFD" fill-opacity="0.011764706" d="M2828.63 518.13L2832.84 517.819C2834.74 519.796 2834.67 520.652 2834.63 523.363C2834.6 525.672 2834.4 527.996 2834.24 530.3L2834.99 530.989L2835.88 530.676C2837.92 529.973 2839.5 529.312 2841.68 529.836C2842.29 538.06 2835.28 550.931 2832.96 559.025C2831.16 565.276 2829.88 571.747 2828.71 578.142C2823.24 608.084 2824.06 641.14 2827.11 671.346C2827.86 678.773 2828.79 685.797 2830.58 693.06C2832.3 700.027 2843 732.045 2841.67 736.164C2838.96 736.251 2836.03 735.745 2833.73 737.168C2833.37 738.92 2833.57 739.518 2834.21 741.185C2835.42 744.354 2834.8 748.43 2833.4 751.499C2833 752.371 2833.01 752.32 2832.57 752.995C2832.92 746.107 2824.15 727.203 2821.91 719.013C2819.91 711.696 2818.47 703.959 2817.26 696.473C2810.66 655.937 2808.71 611.51 2816.86 571.179C2820.02 555.555 2826.34 540.172 2828.67 524.522C2829.01 522.21 2829.22 520.424 2828.63 518.13Z"/>
	<path fill="#FEFDFD" fill-opacity="0.015686275" d="M1296.73 608.174C1297.38 609.184 1297.98 610.322 1298.09 611.537C1298.43 615.281 1297.65 619.604 1297.62 623.429L1297.55 658.12L1297.5 818.418C1297.49 830.216 1299.12 870.784 1296.65 879.07C1296.21 880.524 1295.71 881.362 1294.28 881.988C1292.11 882.938 1289.1 882.207 1286.83 881.888L1289.19 880.708C1291.93 873.304 1290.19 846.898 1290.2 838.01L1289.66 690.064C1289.57 667.639 1287.69 641.048 1289.79 618.981C1290.32 613.419 1292.64 611.578 1296.73 608.174Z"/>
	<path fill="#FEFDFD" fill-opacity="0.015686275" d="M1779.08 601.834C1781.63 601.734 1783.28 601.163 1785.32 603.001C1791.09 608.198 1789.36 629.784 1789.42 637.344C1789.89 689.061 1789.04 740.785 1789.23 792.497C1789.46 813.483 1789.42 834.471 1789.11 855.456C1788.99 863.481 1789.67 872.641 1788.19 880.468C1784.71 883.078 1781.86 882.608 1777.73 882.015L1776.72 881.866C1779.57 881.029 1780.96 881.184 1782.56 878.45C1784.28 827.095 1783.54 775.622 1783.44 724.24C1783.37 688.979 1784.71 652.947 1782.26 617.793C1781.92 612.847 1781.98 605.945 1779.08 601.834Z"/>
	<path fill="#FEFDFD" fill-opacity="0.011764706" d="M1093.71 604.685C1099.59 609.995 1099.32 621.182 1099.69 628.695C1100.88 652.622 1103.73 872.424 1100.47 880.544C1098.77 881.549 1097.89 881.624 1095.98 881.671C1094.69 789.34 1096.5 697.002 1093.71 604.685Z"/>
	<path fill="#FEFDFD" fill-opacity="0.011764706" d="M1531.97 703.307C1535.5 705.882 1536.19 713.51 1536.88 717.786C1539.39 733.446 1544.49 875.002 1539.82 881.664C1536.62 882.899 1533.72 882.295 1530.43 881.845C1532.77 881.183 1533.62 881.252 1535.17 879.31C1536.31 861.703 1535.46 710.865 1531.97 703.307Z"/>
	<path fill="#FEFDFD" fill-opacity="0.011764706" d="M3898.76 499.835L3902.82 499.692C3905.09 501.886 3905.46 503.164 3905.52 506.414C3905.93 526.538 3905.58 546.755 3905.56 566.888C3905.53 590.828 3905.82 614.657 3903.69 638.533C3900.92 640.438 3899.07 640.48 3895.71 639.95C3896.41 639.289 3897.04 638.706 3897.51 637.848C3901.05 631.263 3901.43 508.301 3898.76 499.835Z"/>
	<path fill="#FEFDFD" fill-opacity="0.019607844" d="M3156.76 701.452C3159.26 701.63 3161.01 701.326 3162.99 703.006C3164.73 713.425 3166.39 791.731 3163.7 798.179C3147.68 801.513 3109.29 800.145 3092.85 797.118C3108.55 794.494 3140.36 796.469 3157.63 796.51C3158.07 795.678 3158.43 794.969 3158.63 794.04C3160.14 786.954 3159.38 706.804 3158.22 703.549C3157.99 702.927 3157.16 702.027 3156.76 701.452Z"/>
	<path fill="#FEFDFD" fill-opacity="0.015686275" d="M2964.6 695.061C2964.46 688.963 2961.22 683.061 2960.51 676.928C2958.45 659.128 2958.36 640.57 2958.48 622.643C2958.54 612.537 2959.28 602.547 2961.11 592.601C2962.26 586.38 2964.38 580.119 2964.59 573.779L2964.61 572.951C2965.96 574.95 2966.33 576.662 2966.41 579.028C2967.03 595.896 2964.84 612.937 2964.81 629.827C2964.79 643.467 2968.44 681.267 2966.13 691.554C2965.86 692.76 2965.21 694.006 2964.6 695.061Z"/>
	<path fill="#FEFDFD" fill-opacity="0.011764706" d="M3357.51 653.164C3351.68 645.937 3351.23 634.823 3350.82 625.837C3350.42 617.222 3347.51 589.694 3353.48 583.861C3354.96 582.408 3355.5 582.483 3357.54 582.434L3358.94 583.885L3357.74 586.913C3350.8 603.314 3363.69 641.791 3357.51 653.164Z"/>
	<path fill="#FEFDFD" fill-opacity="0.011764706" d="M2093.72 617.963C2099.35 622.575 2099.68 631.441 2100.35 638.186C2101.26 647.451 2105.59 675.669 2101.63 683.434C2101.55 683.595 2101.48 683.76 2101.4 683.923C2102.25 675.394 2096.55 666.982 2095.51 658.572C2093.87 645.307 2096.46 630.984 2093.72 617.963Z"/>
	<path fill="#FEFDFD" fill-opacity="0.011764706" d="M1287.02 505.018C1290.4 504.702 1292.08 504.293 1295.25 505.708C1301.32 514.258 1293.09 535.596 1299.89 538.153L1299.09 540.187C1296.73 541.341 1295.15 542.766 1292.54 541.945C1288.5 535.074 1290.23 515.912 1289.57 507.182L1287.02 505.018Z"/>
	<path fill="#FEFDFD" fill-opacity="0.011764706" d="M3691.66 755.837C3695.69 757.533 3697.66 758.113 3699.4 762.445C3701.73 768.291 3703.05 778.528 3700.61 784.435C3700.31 785.161 3700.24 785.249 3699.91 785.864C3699.29 785.165 3698.7 784.464 3698.11 783.747C3691.58 775.883 3695.8 764.614 3691.66 755.837Z"/>
</svg>
